<svg xmlns="http://www.w3.org/2000/svg" width="20" height="20">
  <path d="M15.287.314a1.007 1.007 0 01.619-.295l.117-.009c.526-.033 1.12.01 1.712.199.524.166.985.433 1.351.822.317.336.546.734.698 1.176a4.487 4.487 0 01.21 1.916.996.996 0 01-.293.606l-9.39 9.39-.811.81-.03-.03a1 1 0 01-1.353-1.353l-1.648-1.648a1 1 0 01-1.352-1.352l-.031-.031.207-.207L15.287.314zm1.14 1.688l-.513.513L17.5 4.1l.517-.517a2.447 2.447 0 00-.123-.724 1.253 1.253 0 00-.264-.458 1.156 1.156 0 00-.5-.287 2.645 2.645 0 00-.703-.113zm-8.513 8.513L9.5 12.1l6.586-6.586L14.5 3.929l-6.586 6.586zm-1.54 3.125l2.383-.596a1 1 0 01.486 1.94l-4 1.001a1 1 0 01-1.213-1.213l1-4a1 1 0 111.94.485l-.596 2.383zM18 18.015v-8.53a1 1 0 012 0v9.53a1 1 0 01-1 1H1a1 1 0 01-1-1v-18a1 1 0 011-1h9.53a1 1 0 010 2H2v16h16z"/>
</svg>