<svg xmlns="http://www.w3.org/2000/svg" width="16" height="16">
    <path fill-rule="nonzero" d="M6.4717 10.449L3.7526 7.3415c-.3637-.4156-.9955-.4578-1.4111-.094-.4156.3636-.4578.9954-.094 1.411l3.4873 3.9856a.9999.9999 0 0 0 .0711.0759.994.994 0 0 0 .2811.191c.2712.1227.588.1195.859-.0157.1-.0497.193-.117.274-.2012a.9999.9999 0 0 0 .0682-.0783l6.488-7.9852c.3482-.4286.283-1.0584-.1456-1.4067-.4286-.3483-1.0584-.2831-1.4067.1455L6.4717 10.449zM4 0h8c2.2091 0 4 1.7909 4 4v8c0 2.2091-1.7909 4-4 4H4c-2.2091 0-4-1.7909-4-4V4c0-2.2091 1.7909-4 4-4z"/>
</svg>