<svg width="16" height="16" viewBox="0 0 16 16" fill="none" xmlns="http://www.w3.org/2000/svg">
  <path
    fillRule="evenodd"
    clipRule="evenodd"
    d="M12.7729 4.28765C13.0658 3.99476 13.0658 3.51989 12.7729 3.22699C12.48 2.9341 12.0052 2.9341 11.7123 3.22699L7.99997 6.93931L4.28765 3.227C3.99476 2.9341 3.51989 2.9341 3.22699 3.227C2.9341 3.51989 2.9341 3.99476 3.22699 4.28766L6.93931 7.99997L3.227 11.7123C2.9341 12.0052 2.9341 12.48 3.227 12.7729C3.51989 13.0658 3.99476 13.0658 4.28766 12.7729L7.99997 9.06063L11.7123 12.7729C12.0052 13.0658 12.48 13.0658 12.7729 12.7729C13.0658 12.48 13.0658 12.0052 12.7729 11.7123L9.06063 7.99997L12.7729 4.28765Z"
    fill="#808080"
  />
</svg>