<svg xmlns="http://www.w3.org/2000/svg" width="32" height="32">
    <path fill-rule="nonzero" d="M16 30c7.732 0 14-6.268 14-14S23.732 2 16 2 2 8.268 2 16s6.268 14 14 14zm0-15.4142l-4.2929-4.293c-.3905-.3904-1.0237-.3904-1.4142 0-.3905.3906-.3905 1.0238 0 1.4143L14.5858 16l-4.293 4.2929c-.3904.3905-.3904 1.0237 0 1.4142.3906.3905 1.0238.3905 1.4143 0L16 17.4142l4.2929 4.293c.3905.3904 1.0237.3904 1.4142 0 .3905-.3906.3905-1.0238 0-1.4143L17.4142 16l4.293-4.2929c.3904-.3905.3904-1.0237 0-1.4142-.3906-.3905-1.0238-.3905-1.4143 0L16 14.5858zM16 32C7.1634 32 0 24.8366 0 16S7.1634 0 16 0s16 7.1634 16 16-7.1634 16-16 16z"/>
</svg>