<svg xmlns="http://www.w3.org/2000/svg" width="32" height="32">
    <path fill-rule="nonzero" d="M16 30c7.732 0 14-6.268 14-14S23.732 2 16 2 2 8.268 2 16s6.268 14 14 14zm-1.1436-10.4213l-5.2162-4.347c-.4243-.3535-1.0549-.2962-1.4084.1281-.3536.4243-.2963 1.0549.128 1.4084l5.9975 4.998.018.0147c.4313.345 1.0606.275 1.4056-.1562a.4678.4678 0 0 0 .002-.0026l7.998-9.9974c.345-.4313.275-1.0606-.1562-1.4056-.4313-.345-1.0606-.275-1.4056.1562l-7.3627 9.2034zM16 32C7.1634 32 0 24.8366 0 16S7.1634 0 16 0s16 7.1634 16 16-7.1634 16-16 16z"/>
</svg>